<?xml version="1.0" encoding="UTF-8"?>
<!DOCTYPE svg PUBLIC "-//W3C//DTD SVG 1.1//EN" "http://www.w3.org/Graphics/SVG/1.1/DTD/svg11.dtd">
<!-- Creator: CorelDRAW X8 -->
<svg xmlns="http://www.w3.org/2000/svg" xml:space="preserve" width="50" height="50" version="1.1" style="shape-rendering:geometricPrecision; text-rendering:geometricPrecision; image-rendering:optimizeQuality; fill-rule:evenodd; clip-rule:evenodd"
viewBox="35000 12800 15000 100"
 xmlns:xlink="http://www.w3.org/1999/xlink">
 <defs>
  <style type="text/css">
   <![CDATA[
    .fil0 {fill:#FEFEFE}
   ]]>
  </style>
 </defs>
 <g id="Camada_x0020_1">
  <metadata id="CorelCorpID_0Corel-Layer"/>
  <path class="fil0" d="M37002 7868l703 368c0,0 117,74 251,-17l579 516c0,0 57,151 492,201l580 740c0,0 -71,110 505,177l566 1025c0,0 0,140 298,70l536 1266 -7 482c0,0 77,13 -134,93l-3 262c0,0 -34,214 -74,318 0,0 -224,689 -375,790l34 70c0,0 308,-211 388,-405l121 576c0,0 50,80 -67,177l227 576c0,0 77,30 -13,114l-77 70 37 57 113 -90c0,0 -19,87 -73,117l351 496c0,0 57,77 -26,160l428 553 57 294c0,0 10,131 -27,225 0,0 -117,499 -137,535 -20,37 -1272,-498 -1272,-498l-4 -141 94 8 -1118 -571 13 -127c0,0 37,-97 -120,-204l-911 -690 7 -231 -844 -947 64 -91 83 50 -850 -1335c0,0 -44,-51 13,-81l71 -73c0,0 60,-67 -20,-201l-499 -995c0,0 -30,-23 16,-103l114 -255c0,0 27,-107 -23,-211l-265 -797c0,0 -40,-88 14,-137l60 -194c0,0 47,-131 3,-298l-90 -733 97 -64c0,0 64,-47 54,-151 28,-31 60,-746 60,-746zm1729 3732l25 68c0,0 -700,410 -1207,-177 562,156 826,151 1182,109zm683 1456c0,0 -627,363 -1133,-208 0,0 866,223 1176,102l35 84 -78 22zm686 1427l-16 -59c0,0 -149,59 -384,31 0,0 -478,-62 -820,-145 0,0 348,443 916,294 0,0 242,-71 273,-96 -31,25 31,-25 31,-25zm469 1025l28 74c0,0 -668,398 -1226,-174 0,0 707,174 1154,118 -447,56 44,-18 44,-18zm-351 -2788c0,0 171,-208 251,-440 0,0 205,-572 208,-652 0,0 168,453 -56,797 0,0 -205,282 -363,361l-28 -28 -12 -38zm-3173 -4611c0,0 814,865 1118,1383 0,0 767,1174 847,1332 0,0 575,965 761,1381 0,0 686,1363 723,1465 0,0 503,1071 547,1189 0,0 530,1229 568,1325 0,0 450,1074 468,1189l-74 10c0,0 -547,-1369 -708,-1633 0,0 -534,-1074 -611,-1201 0,0 -587,-1084 -621,-1146 0,0 -609,-1074 -646,-1161 0,0 -701,-1235 -816,-1418 0,0 -919,-1599 -956,-1639l0 0 -534 -922 534 922 -600 -1076zm2521 3152c0,0 332,-543 425,-1049 0,0 187,413 -77,807 0,0 -205,286 -348,345l-37 -65 37 -38zm-664 -990c0,0 93,-195 37,-710 0,0 -31,-289 -68,-488 0,0 251,252 273,556 0,0 40,344 -171,680l-40 -16 -31 -22zm-891 401l-16 80c-492,-120 -743,-531 -723,-1011 234,413 451,778 739,931z"></path>
  <path class="fil0" d="M42430 16619l-392 -511c0,0 -32,-40 4,-80 0,0 43,-67 -31,-134l-296 -435c0,0 -23,-45 5,-74 0,0 87,-59 -12,-221l-219 -527c0,0 -13,-50 17,-81 0,0 57,-85 22,-219 -36,-134 2,9 2,9l-120 -528c0,0 -35,-74 19,-82 0,0 62,-35 48,-120l-43 -725c0,0 2,-62 23,-64 22,-2 -8,4 -8,4 0,0 142,-37 124,-140l25 -666c0,0 244,-112 251,-338l62 -351c0,0 2,-88 52,-99 0,0 162,-129 197,-287l144 -346c0,0 97,12 146,-70l218 -310c0,0 16,-59 43,-10 0,0 45,50 7,151 0,0 -126,410 -164,622 0,0 -102,600 -112,752 0,0 -54,534 -59,778 0,0 -25,652 -22,717 0,0 -6,770 2,870 0,0 8,526 18,600 0,0 44,889 52,967 0,0 39,777 72,844l71 -47c0,0 -64,-581 -62,-845 0,0 -24,-906 5,-944 0,0 -4,-390 11,-506 0,0 57,-1103 62,-1333 0,0 76,-1071 69,-1098 0,0 74,-925 74,-959l28 -435c0,0 7,-55 34,-10l127 229c0,0 25,52 95,52 0,0 47,8 59,55l130 397c0,0 0,77 87,147l54 47c0,0 35,50 43,77l54 429c0,0 12,127 74,179 0,0 97,99 114,105 0,0 43,17 40,92l-4 638c0,0 -5,57 49,82l45 19c0,0 27,3 24,73 0,0 -103,918 -104,934 0,0 135,-190 75,17l-152 549c0,0 -32,74 0,136 0,0 70,62 13,132l-266 543c0,0 -55,97 0,165 0,0 62,32 -7,67 0,0 -351,459 -430,588 0,0 79,-35 94,-14 0,0 22,26 -17,67l-464 503c0,0 -10,68 -77,1 67,67 -23,-28 -23,-28zm-187 -4701c0,0 -221,-181 -224,-424 0,0 -1,-192 72,-286 0,0 80,546 202,662l-29 31 -21 17zm703 24c0,0 222,-202 200,-469 0,0 -20,-211 -110,-313 0,0 -30,600 -151,729l36 34 25 19zm-205 688c0,0 355,20 515,-190 0,0 141,-161 115,-271 0,0 -354,298 -587,385 0,0 -32,10 -48,10l0 45 5 21zm-3 909c0,0 389,-8 515,-214 0,0 112,-190 105,-261 0,0 -422,362 -582,396l-49 6 11 73zm59 933c0,0 428,0 554,-281 0,0 66,-144 66,-189 0,0 -352,313 -586,391l-41 9 -1 47 8 23zm31 704c0,0 358,2 534,-256 0,0 91,-181 88,-219 0,0 -379,331 -625,398l0 51 3 26zm-555 77l0 90c0,0 -540,-40 -562,-558 193,201 361,392 562,468zm9 -779l6 78c0,0 -534,25 -552,-556 232,291 330,361 546,478zm-3 -931l-6 74c0,0 -522,-6 -547,-558 171,190 366,419 553,484zm-12 -934l-4 83c0,0 -496,-6 -552,-549 190,201 362,388 556,466z"></path>
  <path class="fil0" d="M42544 16743l532 -590c0,0 35,-36 13,-80 0,0 -55,-69 16,-120l343 -456c0,0 43,-40 -9,-78 0,0 -58,-66 -5,-159l268 -553c0,0 49,-45 -18,-119 0,0 -29,-90 -7,-145 0,0 99,-292 99,-319 0,0 0,-108 58,-23 0,0 103,101 121,104 18,3 44,27 55,3 0,0 42,-47 -3,-68 0,0 -127,-143 -147,-236 0,0 -17,-62 3,-83 0,0 -10,-48 -34,-53 0,0 -51,-20 -50,-96 0,0 50,-560 66,-609 0,0 25,-152 25,-172 0,0 42,-55 -77,-67 0,0 -66,-24 -62,-92l11 -631c0,0 29,-56 -40,-82l-104 -101c0,0 -57,8 0,-97l354 -824c0,0 0,-60 60,-33l114 12c0,0 88,21 147,-103l539 -954c0,0 44,-80 137,-82 94,-1 176,-27 211,-32 0,0 117,-40 171,-110l534 -685c0,0 17,-72 129,-82 0,0 176,-37 196,-47 0,0 241,-120 253,-175l515 -454c0,0 47,-34 79,-8 0,0 97,60 211,-2l644 -357c0,0 39,-13 41,25l67 725c0,0 6,81 45,107 0,0 83,87 112,96 0,0 -91,684 -102,745 0,0 -17,206 10,278 0,0 60,204 70,214 0,0 32,84 -15,169 0,0 -223,663 -229,695 0,0 -84,184 -7,336l82 191c0,0 55,72 -8,156l-474 926c0,0 -79,135 -15,199 63,63 70,88 70,88 0,0 72,56 -12,113l-837 1292 69 -28c0,0 37,-26 49,1l16 42c0,0 15,35 -1,52l-821 902 -3 223c0,0 -15,55 -33,67l-916 705c0,0 -106,38 -59,268 0,0 -1064,519 -1100,590l67 2 2 126 -1246 502c0,0 -41,47 -50,-39l-199 -883 70 -4 9 -23zm3443 -6439c-268,-303 -215,-1069 74,-1214 0,0 -102,658 -77,857 0,0 15,267 59,320l-28 15 -28 22zm-618 1055c0,0 -490,-264 -484,-797 0,0 15,-280 59,-348 54,177 295,1016 472,1083l-19 28 -28 34zm-683 1422c-342,-185 -648,-820 -428,-1155 102,313 237,860 465,1102l-21 25 -16 28zm-301 2725c0,0 92,100 854,-31l329 -84c0,0 -180,292 -612,329 0,0 -335,22 -605,-146l15 -37 19 -31zm487 -1080c0,0 323,78 901,-53l282 -68c-245,384 -849,403 -1214,192l13 -37 18 -34zm615 -1462c0,0 227,78 714,-16 0,0 453,-83 475,-108 0,0 -214,285 -581,326 0,0 -371,46 -639,-137l12 -37 19 -28zm732 -1360c0,0 407,99 1087,-96 0,0 43,0 84,-21 0,0 -267,453 -947,273 0,0 -186,-31 -248,-97l9 -31 15 -28zm749 -853c0,0 478,-177 620,-503 0,0 125,-279 81,-490 0,0 -428,717 -695,906l-44 28 38 59zm-93 -1397c624,-835 1004,-1198 1004,-1198 0,0 -983,1679 -1036,1794 0,0 -807,1400 -859,1499 0,0 -798,1400 -823,1444 0,0 -757,1387 -779,1418 0,0 -705,1347 -773,1502 -68,156 -602,1317 -677,1556l-68 9c460,-1289 1089,-2727 1707,-3964 0,0 512,-1089 643,-1294 0,0 766,-1431 816,-1465 0,0 596,-1043 854,-1310l-9 9z"></path>
 </g>
</svg>
