<?xml version="1.0" encoding="utf-8"?>
<!-- Generator: Adobe Illustrator 19.0.0, SVG Export Plug-In . SVG Version: 6.00 Build 0)  -->
<svg version="1.1" xmlns="http://www.w3.org/2000/svg" xmlns:xlink="http://www.w3.org/1999/xlink" x="0px" y="0px"
	 viewBox="650 118.3 1912.4 556.7" style="enable-background:new 650 118.3 1912.4 556.7;" xml:space="preserve">
<style type="text/css">
	.st0{fill:none;stroke:#FFFFFF;stroke-width:10;stroke-miterlimit:20;}
	.st1{fill:none;stroke:#FFFFFF;stroke-width:10;stroke-miterlimit:20;}
	.st2{fill:none;stroke:#FFFFFF;stroke-width:10;stroke-miterlimit:20;}
</style>
<g id="Camada_2">
</g>
<g id="Camada_1">
	<path class="st0" d="M958.4,218.3c0,0,1.3-4.7,7.4-7.8c0,0,6.9-3,12.5,7.5c0,0,24.6,26.3,26.3,27.2c0,0,8.6,4.2,9.3,4.4
		c0.7,0.2,5.2-5.5,15.1-2.1l-13.7,31c0,0-7.1-3.1-8-13.4l-9.4-4.5c0,0-34.2-2.7-36.5-3.4c0,0-9.5,2.3-12.6-2c0,0-3.4-1.9-1-13.5
		c0,0-6.9,8.4-18.3,11.6c0,0-14.7,5.5-31.9-6.5c0,0-2.6-2.5-7.2-7C861.4,210,765.1,252.8,766.2,316c2.2,75.5,151.3,78.6,205.3,111.4
		c0,0,23.9,11.9,38.4,29.1c0,0,13.3,14.3,14.5,38.9c3.1,30-17.4,49.6-39.4,66.2c-52.2,34.7-126.6,58.4-189.2,53.4
		c-48.1-2.9-82.1-36.4-87.2-83.6c0,0-3.5-21.5,7.5-34.2c0,0-4.5-2.2-2-9.9l0.9-28.3l-2.5-6.8c0,0-7.1-1-8.6-6.8l23.1-8.8
		c0,0,1.7,6.1-2.7,11.6l2.3,6.9l17,20.9c0,0,4.5,2.6,4.9,5.9c0,0,10.3-1.4,15.1,11.9c5,13.6,5.5,35.2,15.6,45.2
		c17.7,17.5,33.4,17.6,56.9,15.2c0,0,44.9-8,72.9-17.8c49.6-18.5,85.4-42.5,12-68.3c-37.4-11.1-81.7-18.7-117.3-31.7
		c0,0-36.3-13.4-54.3-28.8c0,0-21.1-16.4-30.6-33.2c-10.2-18.1-13.4-52.1-8.1-72.1c6.4-23.7,19.8-52,37.1-69.8
		c34-36.6,119.6-84.9,168.1-49.4c0,0,23.1-2.7,34.6,16c0,0,5.4,7.5,5.5,17.5l1.2,1.1L958.4,218.3z"/>
	<path class="st0" d="M1057.6,378.3c0,0,5.6-29.1,29-35c0,0,15.8-3.9,22.1,8.8c0,0,9.2,17.1,11,38.3c0,0,3.1,31.4,2,46.5
		c0,0,14.1-27.1,20.3-34.5c0,0,11.3-16.8,27.8-29.7c0,0,17.1-16.2,43.9-16.4c0,0,15.6-0.4,24.6,23.4c0,0,8.7,20.7,12.5,39.3
		c0,0,4.6,16.8,8.3,40.1c1.9,9.7,10.8,68.2,12.9,70.3c15.6-43.3,28-115,61-150.4c0,0,17.5-19.3,37.3,0c0,0,9.9,10,19.8,34
		c0,0,6.2,12.8,13.9,36.5c0,0,11.8,36.7,12.6,40.1c0,0,9.6,30.7,14.1,36.1c0,0,3.8,7.4,8.2,11.8c0,0,8.4,6.5,1.1,27.4
		c0,0-10.8,25-37.4,20.8c0,0-9.9-1.4-17.4-13c0,0-11.4-17-15.6-28.9c0,0-8.5-23.4-12-34.7c0,0-8.2-31.7-9.7-32.5
		c0,0-7.6,35.4-14,50.1c0,0-10.8,27.2-18.3,38.4c0,0-16.1,27.5-30.9,37.3c0,0-22.2,15.3-41.3,2.1c0,0-14.9-8.9-23.2-38.4
		c0,0-7.6-29.7-9.2-43.1c0,0-5.3-37.2-5.8-38.3c-11-72.2-36-32.1-48,8.2c0,0-9.8,30-11.8,40.8c-8.9,32.9-7.2,82.7-49.8,87.1
		c0,0-22.1,2.9-25.9-17.6c0,0-3.4-18.7-5.3-42.4c0,0-3.3-43.5-3.1-44.2C1059.7,470.2,1058.5,424.5,1057.6,378.3z"/>
	<path class="st0" d="M1621.9,392.8c0,0,44.8,20.1,54.7,48.6c0,0,13.9,25.3-5.1,73.3c0,0-15.6,39.1-52.6,69.3
		c0,0-26.6,22.4-53.3,26.8c0,0-54.1,15.2-88.1-40.1c-25.9-38.1-13.5-110.3,5.5-149.8C1509.7,365.8,1626.7,304.8,1621.9,392.8z
		 M1553.2,551.5c0,0,41.7,2.2,64.3-54.5c0,0,16.7-53.3-71.5-57.6c0,0-7.7,4.9-18.3,5.9c0,0-12,25.1-7.5,61.5c0,0,5.1,38.2,28.5,44.3
		l2.4,0.6L1553.2,551.5z"/>
	<path class="st0" d="M2272.6,526.2c-4.2-16.7-25.5-12.5-25.5-12.5c-10.8,0.7-38.5,18.4-38.5,18.4c-46.1,29.6-65.7,22.4-65.7,22.4
		c-16.7,0.8-22.4-31.5-22.4-31.5c23.2,0.7,54.1-7.8,54.1-7.8c54.1-18.4,50.9-60.7,50.9-60.7c1.9-30.9-20.7-60.7-20.7-60.7
		c-34.2-44.4-71.5-43.7-71.5-43.7c-34.6-1.5-52.2,35.7-52.2,35.7c-12.9,22.8-21.4,70.2-21.4,70.2l-13.7,3.6
		c-29.4,16-23.5,40.1-23.5,40.1c2.3,17.3,34.6,17.8,34.6,17.8c3,54.1,17.8,69.5,17.8,69.5c27.4,37.6,80.1,24.5,80.1,24.5
		c58.6-13.5,92.4-39.9,92.4-39.9C2280.8,549,2272.6,526.2,2272.6,526.2z M2121,425.8c0,0,2.1-9.3,6.1-12.5c0,0,13.5-1.9,25.4,17.3
		c0,0,12,17.8,10.8,27.3l-1.3,5.3c0,0-7.4,3-25.3,3l-15.9-1.1l15.9,1.1l-19.7-1.9C2117,464.4,2118.1,431.9,2121,425.8z"/>
	<path class="st0" d="M2507.6,526.2c-4.2-16.7-25.5-12.5-25.5-12.5c-10.8,0.7-38.5,18.4-38.5,18.4c-46.1,29.6-65.7,22.4-65.7,22.4
		c-16.7,0.8-22.4-31.5-22.4-31.5c23.2,0.7,54.1-7.8,54.1-7.8c54.1-18.4,50.9-60.7,50.9-60.7c1.9-30.9-20.7-60.7-20.7-60.7
		c-34.2-44.4-71.5-43.7-71.5-43.7c-34.6-1.5-52.2,35.7-52.2,35.7c-12.9,22.8-21.5,70.2-21.5,70.2l-13.7,3.6
		c-29.4,16-23.5,40.1-23.5,40.1c2.3,17.3,34.6,17.8,34.6,17.8c3,54.1,17.8,69.5,17.8,69.5c27.3,37.6,80.1,24.5,80.1,24.5
		c58.6-13.5,92.4-39.9,92.4-39.9C2515.8,549,2507.6,526.2,2507.6,526.2z M2355.9,425.8c0,0,2.1-9.3,6.1-12.5c0,0,13.5-1.9,25.4,17.3
		c0,0,12,17.8,10.8,27.3l-1.3,5.3c0,0-7.4,3-25.3,3l-15.9-1.1l15.9,1.1l-19.7-1.9C2352,464.4,2353.1,431.9,2355.9,425.8z"/>
	<g>
		<path id="XMLID_3_" class="st1" d="M1793.9,525.8C1793.9,525.8,1793.9,525.8,1793.9,525.8C1793.9,525.8,1793.9,525.8,1793.9,525.8
			z"/>
		<path id="XMLID_11_" class="st1" d="M1794.1,525.6L1794.1,525.6c-0.1,0.1-0.1,0.1-0.2,0.1C1793.9,525.7,1794,525.7,1794.1,525.6z"
			/>
		<path id="XMLID_25_" class="st2" d="M1860.7,594.1l-1.6-8.3l-12.1-15.7c2.4-2.4,0.7-4.5,0.7-4.5l-9.9-14.1
			c1.5-0.9,2.1-3.3,2.1-3.3l-3.2,2.6l-1-1.6l2.2-2c2.6-2.4,0.4-3.2,0.4-3.2l-6.4-16.3c3.3-2.7,1.9-5,1.9-5l-3.4-16.3
			c-2.3,5.5-11,11.5-11,11.5l-1-2c4.3-2.9,10.6-22.4,10.6-22.4c1.1-2.9,2.1-9,2.1-9l0.1-7.4c6-2.3,3.8-2.6,3.8-2.6l0.2-13.7
			l-15.2-35.9c-8.4,2-8.4-2-8.4-2l-16-29.1c-16.3-1.9-14.3-5-14.3-5l-16.4-21c-12.3-1.4-13.9-5.7-13.9-5.7l-16.4-14.6
			c-3.8,2.6-7.1,0.5-7.1,0.5l-19.9-10.4c0,0-0.9,20.3-1.7,21.1c0.3,2.9-1.5,4.3-1.5,4.3l-2.7,1.8l2.6,20.8c1.2,4.7-0.1,8.4-0.1,8.4
			l-1.7,5.5c-1.5,1.4-0.4,3.9-0.4,3.9l7.5,22.6c1.4,2.9,0.7,6,0.7,6l-3.2,7.2c-1.3,2.3-0.5,2.9-0.5,2.9l14.1,28.2
			c2.3,3.8,0.6,5.7,0.6,5.7l-2,2.1c-1.6,0.9-0.4,2.3-0.4,2.3l24.1,37.8l-2.4-1.4l-1.8,2.6l23.9,26.8l-0.2,6.5l25.8,19.6
			c4.5,3,3.4,5.8,3.4,5.8l-0.4,3.6l31.7,16.2l-2.7-0.2l0.1,4c0,0,35.5,15.2,36.1,14.1c0.6-1,3.9-15.2,3.9-15.2
			C1861,597.8,1860.7,594.1,1860.7,594.1z M1805.4,462.5c0,0,5.8-16.2,5.9-18.5c0,0,4.8,12.8-1.6,22.6c0,0-5.8,8-10.3,10.2l-0.8-0.8
			l-0.3-1.1C1798.3,474.9,1803.2,469,1805.4,462.5z M1779.8,433.6c0,0,9.4-15.4,12-29.7c0,0,5.3,11.7-2.2,22.9c0,0-5.8,8.1-9.9,9.8
			l-1-1.8L1779.8,433.6z M1767.9,387.3c0,0,1.1,9.8-4.8,19.3l-1.1-0.5l-0.9-0.6c0,0,2.6-5.5,1-20.1c0,0-0.9-8.2-1.9-13.8
			C1760.1,371.6,1767.2,378.7,1767.9,387.3z M1714.8,390.5c6.6,11.7,12.8,22.1,20.9,26.4l-0.5,2.3
			C1721.4,415.8,1714.2,404.1,1714.8,390.5z M1722.7,440.1c15.9,4.4,23.4,4.3,33.5,3.1l0.7,1.9
			C1756.9,445.1,1737,456.7,1722.7,440.1z M1743.4,478.6c0,0,24.5,6.3,33.3,2.9l1,2.4l-2.2,0.6
			C1775.5,484.5,1757.7,494.8,1743.4,478.6z M1760.4,520c9.7,2.4,23.2,4.1,23.2,4.1c6.7,0.8,10.9-0.9,10.9-0.9l0.5,1.7
			c0,0-0.5,0.4-0.9,0.7l0,0c-0.1,0.1-0.1,0.1-0.2,0.1c0,0,0,0,0,0c0,0,0,0,0,0c0,0,0,0,0,0c0,0,0.1-0.1,0.2-0.1
			c-0.9,0.7-7.7,2.7-7.7,2.7C1770.2,532.6,1760.4,520,1760.4,520z M1774.3,551.1c0,0,16.4,4,28.9,3.6c1.9-0.3,5.1-0.8,5.1-0.8
			l0.8,2.1C1809.1,556.1,1790.1,567.3,1774.3,551.1z M1848.9,607.1c0,0-15.5-38.8-20.1-46.3c0,0-15.1-30.4-17.3-34
			c0,0-16.6-30.7-17.6-32.5c0,0-17.3-30.4-18.3-32.9c0,0-19.9-35-23.1-40.2c0,0-26.1-45.3-27.1-46.5l-15.1-26.1l15.1,26.1l-17-30.5
			c0,0,23.1,24.5,31.7,39.2c0,0,21.7,33.3,24,37.8c0,0,16.3,27.4,21.6,39.1c0,0,19.4,38.6,20.5,41.5c0,0,14.3,30.4,15.5,33.7
			c0,0,15,34.8,16.1,37.6c0,0,12.8,30.4,13.3,33.7L1848.9,607.1z"/>
		<path id="XMLID_36_" class="st1" d="M1793.9,525.8C1793.8,525.8,1793.8,525.8,1793.9,525.8L1793.9,525.8z"/>
		<path id="XMLID_37_" class="st1" d="M1807,554.5c-1.2,0.2-2.5,0.2-3.8,0.3C1801,555.1,1800.3,555.3,1807,554.5z"/>
		<path id="XMLID_23_" class="st1" d="M1833.2,478.1C1833.2,478.1,1833.2,478.1,1833.2,478.1
			C1833.2,478.1,1833.2,478.1,1833.2,478.1C1833.2,478.1,1833.2,478.1,1833.2,478.1z"/>
		<path id="XMLID_24_" class="st1" d="M1833.6,478c-0.2,0.1-0.3,0.1-0.4,0.1c0,0,0,0,0,0C1833.3,478.1,1833.8,478,1833.6,478z"/>
		<path id="XMLID_38_" class="st1" d="M1835.5,521l-0.1-0.3C1834.4,517,1835.5,521,1835.5,521z"/>
		<path id="XMLID_39_" class="st1" d="M1862.2,586.7c-0.2-0.1-0.3-0.3-0.5-0.4C1862.5,587.1,1862.5,587,1862.2,586.7z"/>
		<path id="XMLID_40_" class="st1" d="M1833.4,478c-0.1,0-0.1,0-0.2,0.1c0,0,0.2,0,0.4-0.1C1833.6,478,1833.5,478,1833.4,478z"/>
		<path id="XMLID_55_" class="st2" d="M1896.6,508.2c0-0.5,2.9-26.5,2.9-26.5c0.1-2-0.7-2.1-0.7-2.1l-1.3-0.5
			c-1.5-0.7-1.4-2.3-1.4-2.3l0.1-18.1c0.1-2.1-1.1-2.6-1.1-2.6c-0.5-0.2-3.2-3-3.2-3c-1.8-1.5-2.1-5.1-2.1-5.1l-1.5-12.2
			c-0.2-0.8-1.2-2.2-1.2-2.2l-1.5-1.3c-2.5-2-2.5-4.2-2.5-4.2l-3.7-11.3c-0.3-1.3-1.7-1.6-1.7-1.6c-2,0-2.7-1.5-2.7-1.5l-3.6-6.5
			c-0.8-1.3-1,0.3-1,0.3l-0.8,12.3c0,1-2.1,27.2-2.1,27.2c0.2,0.8-2,31.1-2,31.1c-0.1,6.5-1.8,37.8-1.8,37.8
			c-0.4,3.3-0.3,14.3-0.3,14.3c-0.8,1.1-0.1,26.8-0.1,26.8c-0.1,7.5,1.8,24,1.8,24l-2,1.3c-0.9-1.9-2-23.9-2-23.9
			c-0.2-2.2-1.5-27.4-1.5-27.4c-0.3-2.1-0.5-17-0.5-17c-0.2-2.8-0.1-24.7-0.1-24.7c-0.1-1.8,0.6-20.3,0.6-20.3
			c0.1-6.9,1.7-22.1,1.7-22.1c0.3-4.3,3.2-21.3,3.2-21.3c1.1-6,4.6-17.6,4.6-17.6c1.1-2.9-0.2-4.3-0.2-4.3c-0.8-1.4-1.2,0.3-1.2,0.3
			l-6.2,8.8c-1.4,2.3-4.1,2-4.1,2l-4.1,9.8c-1,4.5-5.6,8.1-5.6,8.1c-1.4,0.3-1.5,2.8-1.5,2.8l-1.8,9.9c-0.2,6.4-7.1,9.6-7.1,9.6
			l-0.7,18.9c0.4,2.4-2.1,3.5-3.1,3.8c0.2,0-0.3,0.1-0.4,0.1c-0.4,0.4-0.4,1.7-0.4,1.7l1.2,20.6c0.4,2.4-1.4,3.4-1.4,3.4
			c-1.5,0.2-0.5,2.3-0.5,2.3l3.3,14.7c0,0,0,0,0,0c1,3.8-0.6,6.2-0.6,6.2c-0.9,0.9-0.5,2.3-0.5,2.3l6.2,14.9
			c2.8,4.6,0.3,6.3,0.3,6.3c-0.8,0.8-0.1,2.1-0.1,2.1l8.4,12.3c2.1,1.9,0.9,3.8,0.9,3.8c-1,1.1-0.1,2.3-0.1,2.3l11.1,14.5
			c0,0,0.8,0.8,1.1,1.2c1.5,1.1,1.7-0.5,1.7-0.5L1877,572c1.1-1.2,0.5-1.9,0.5-1.9c-0.4-0.6-2.7,0.4-2.7,0.4
			c2.2-3.7,12.2-16.7,12.2-16.7c2-1,0.2-1.9,0.2-1.9c-1.6-1.9,0-4.7,0-4.7l7.5-15.4c1.6-2-0.4-3.7-0.4-3.7c-0.9-1.8,0-3.9,0-3.9
			l4.3-15.6C1900.4,502.8,1896.6,508.2,1896.6,508.2z M1856.4,471.8l-0.1,2.4c0,0-14.1-0.2-15.6-15.6
			C1846,464.3,1850.9,469.6,1856.4,471.8z M1856.7,498.3l-0.2,2.1c0,0-14.8-0.2-15.5-15.8C1845.9,489.9,1851.4,496.4,1856.7,498.3z
			 M1856.6,549.3c0,0-15.3-1.1-15.9-15.8c5.5,5.7,10.2,11.1,15.9,13.3V549.3z M1841.3,511.1c6.6,8.2,9.4,10.2,15.5,13.5l0.2,2.2
			C1857,526.9,1841.9,527.6,1841.3,511.1z M1856.3,451.7l-0.6,0.5c0,0-6.3-5.1-6.3-12c0,0,0-5.4,2-8.1c0,0,2.3,15.5,5.7,18.8
			L1856.3,451.7z M1878.2,430.7c2.6,2.9,3.1,8.9,3.1,8.9c0.6,7.6-5.7,13.3-5.7,13.3l-0.7-0.5l-1-1
			C1877.3,447.7,1878.2,430.7,1878.2,430.7z M1869.7,470.5c0.5,0,1.4-0.3,1.4-0.3c6.6-2.5,16.6-10.9,16.6-10.9
			c0.7,3.1-3.3,7.7-3.3,7.7c-4.5,6-14.6,5.4-14.6,5.4l-0.1-0.6V470.5z M1869.4,496.1l1.4-0.2c4.5-1,16.5-11.2,16.5-11.2
			c0.2,2-3,7.4-3,7.4c-3.6,5.8-14.6,6.1-14.6,6.1L1869.4,496.1z M1871.2,524l0-1.3l1.2-0.3c6.6-2.2,16.6-11.1,16.6-11.1
			c0,1.3-1.9,5.4-1.9,5.4c-3.6,8-15.7,8-15.7,8L1871.2,524z M1887.4,537.3c-5,7.3-15.1,7.3-15.1,7.3l-0.1-0.7v-1.4
			c7-1.9,17.7-11.3,17.7-11.3C1890,532.2,1887.4,537.3,1887.4,537.3z"/>
		<path id="XMLID_46_" class="st2" d="M2020.7,393.9c-0.8-2-0.3-7.9-0.3-7.9c0.3-1.7,2.9-21.1,2.9-21.1c-0.8-0.3-3.2-2.7-3.2-2.7
			c-1.1-0.7-1.3-3-1.3-3l-1.9-20.6c-0.1-1.1-1.2-0.7-1.2-0.7l-18.3,10.1c-3.2,1.8-6,0.1-6,0.1c-0.9-0.7-2.2,0.2-2.2,0.2l-14.6,12.9
			c-0.3,1.6-7.2,5-7.2,5c-0.6,0.3-5.6,1.3-5.6,1.3c-3.2,0.3-3.7,2.3-3.7,2.3l-15.1,19.4c-1.5,2-4.8,3.1-4.8,3.1
			c-1,0.1-3.3,0.9-6,0.9c-2.6,0.1-3.9,2.3-3.9,2.3l-15.3,27c-1.7,3.5-4.2,2.9-4.2,2.9l-3.2-0.3c-1.7-0.8-1.7,0.9-1.7,0.9l-10,23.4
			c-1.6,3,0,2.7,0,2.7l2.9,2.9c2,0.7,1.1,2.3,1.1,2.3l-0.3,17.9c-0.1,1.9,1.8,2.6,1.8,2.6c3.4,0.3,2.2,1.9,2.2,1.9
			c0,0.6-0.7,4.9-0.7,4.9c-0.5,1.4-1.9,17.3-1.9,17.3c0,2.2,1.4,2.7,1.4,2.7c0.7,0.1,1,1.5,1,1.5c-0.6,0.6-0.1,2.4-0.1,2.4
			c0.6,2.6,4.2,6.7,4.2,6.7c1.3,0.6,0.1,1.9,0.1,1.9c-0.3,0.7-1,0-1.6-0.1c-0.5-0.1-3.4-2.9-3.4-2.9c-1.6-2.4-1.6,0.7-1.6,0.7
			c0,0.8-2.8,9-2.8,9c-0.6,1.6,0.2,4.1,0.2,4.1c1.9,2.1,0.5,3.4,0.5,3.4l-7.6,15.7c-1.5,2.6,0.1,4.5,0.1,4.5
			c1.5,1.1,0.3,2.2,0.3,2.2l-9.7,12.9c-2,1.4-0.5,3.4-0.5,3.4c0.6,1.2-0.4,2.3-0.4,2.3l-15.1,16.7l-0.3,0.7l-2,0.1l5.6,25
			c0.3,2.4,1.4,1.1,1.4,1.1l35.3-14.2l-0.1-3.6l-1.9-0.1c1-2,31.2-16.7,31.2-16.7c-1.3-6.5,1.7-7.6,1.7-7.6l26-20
			c0.5-0.3,0.9-1.9,0.9-1.9l0.1-6.3l23.3-25.6c0.5-0.5,0-1.5,0-1.5l-0.5-1.2c-0.3-0.8-1.4,0-1.4,0l-2,0.8l23.7-36.6
			c2.4-1.6,0.3-3.2,0.3-3.2s-0.2-0.7-2-2.5c-1.8-1.8,0.4-5.6,0.4-5.6l13.4-26.2c1.8-2.4,0.2-4.4,0.2-4.4l-2.3-5.4
			c-2.2-4.3,0.2-9.5,0.2-9.5c0.2-0.9,6.5-19.7,6.5-19.7c1.3-2.4,0.4-4.8,0.4-4.8C2022.4,399.7,2020.7,393.9,2020.7,393.9z
			 M1963.9,372c0,0-2.9,18.7-2.2,24.3c0,0,0.4,7.6,1.7,9.1l-0.8,0.4l-0.8,0.6C1954.2,397.9,1955.7,376.2,1963.9,372z M1932.3,403.9
			c1.5,5,8.4,28.8,13.4,30.7l-0.5,0.8l-0.8,1c0,0-13.9-7.5-13.7-22.6C1930.6,413.8,1931,405.8,1932.3,403.9z M1912.8,443.9
			c2.9,8.9,6.7,24.4,13.2,31.2l-0.6,0.7l-0.5,0.8C1915.3,471.4,1906.6,453.4,1912.8,443.9z M1932.6,560c0,0-9.5,0.6-17.1-4.1l0.4-1
			l0.5-0.9c0,0,2.6,2.8,24.2-0.9l9.3-2.4C1950,550.7,1944.9,558.9,1932.6,560z M1929.4,525.3l0.4-1l0.5-1c0,0,9.2,2.2,25.5-1.5
			l8-1.9C1956.8,530.8,1939.7,531.3,1929.4,525.3z M1964.9,487.6c0,0-10.5,1.3-18.1-3.9l0.3-1l0.5-0.8c0,0,6.4,2.2,20.2-0.5
			c0,0,12.8-2.4,13.5-3.1C1981.4,478.3,1975.3,486.4,1964.9,487.6z M1974.8,447.7c0,0-5.3-0.9-7-2.7l0.3-0.9l0.4-0.8
			c0,0,11.5,2.8,30.8-2.7c0,0,1.2,0,2.4-0.6C2001.6,440,1994,452.8,1974.8,447.7z M2007.2,404.9c-4,9.2-17.6,14.3-17.6,14.3
			l-1.1-1.7l1.2-0.8c7.6-5.4,19.7-25.7,19.7-25.7C2010.8,397,2007.2,404.9,2007.2,404.9z M1986.1,396.4c0,0-22.9,39.7-24.3,42.5
			c0,0-22.6,39.7-23.3,40.9c0,0-21.5,39.3-22.1,40.2c0,0-20,38.2-21.9,42.6c-1.9,4.4-17.1,37.3-19.2,44.1l-1.9,0.3
			c13-36.5,30.9-77.3,48.4-112.4c0,0,14.5-30.9,18.2-36.7c0,0,21.7-40.6,23.1-41.5c0,0,16.9-29.6,24.2-37.1l-0.3,0.3
			c17.7-23.7,28.5-34,28.5-34S1987.6,393.2,1986.1,396.4z"/>
	</g>
</g>
</svg>
