<?xml version="1.0" encoding="utf-8"?>
<!-- Generator: Adobe Illustrator 19.0.0, SVG Export Plug-In . SVG Version: 6.00 Build 0)  -->
<svg version="1.1" id="Camada_1" xmlns="http://www.w3.org/2000/svg" xmlns:xlink="http://www.w3.org/1999/xlink" x="0px" y="0px"
	 viewBox="0 0 354 304.5" style="enable-background:new 0 0 354 304.5;" xml:space="preserve">
<style type="text/css">
	.st0{fill:#F3F3F3;stroke:#FFFFFF;stroke-width:2;stroke-miterlimit:10;}
	.st1{fill:none;stroke:#FFFFFF;stroke-width:2;stroke-miterlimit:10;}
</style>
<path id="XMLID_3_" class="st0" d="M110.4,200.3C110.4,200.3,110.4,200.3,110.4,200.3C110.4,200.3,110.4,200.3,110.4,200.3z"/>
<path id="XMLID_11_" class="st0" d="M110.6,200.1L110.6,200.1c-0.1,0.1-0.1,0.1-0.2,0.1C110.5,200.3,110.5,200.2,110.6,200.1z"/>
<path id="XMLID_25_" class="st1" d="M177.2,268.6l-1.6-8.3l-12.1-15.7c2.4-2.4,0.7-4.5,0.7-4.5l-9.9-14.1c1.5-0.9,2.1-3.3,2.1-3.3
	l-3.2,2.6l-1-1.6l2.2-2c2.6-2.4,0.4-3.2,0.4-3.2l-6.4-16.3c3.3-2.7,1.9-5,1.9-5l-3.4-16.3c-2.3,5.5-11,11.5-11,11.5l-1-2
	c4.3-2.9,10.6-22.4,10.6-22.4c1.1-2.9,2.1-9,2.1-9l0.1-7.4c6-2.3,3.8-2.6,3.8-2.6l0.2-13.7l-15.2-35.9c-8.4,2-8.4-2-8.4-2l-16-29.1
	c-16.3-1.9-14.3-5-14.3-5l-16.4-21c-12.3-1.4-13.9-5.7-13.9-5.7L50.7,21.9c-3.8,2.6-7.1,0.5-7.1,0.5L23.7,11.9
	c0,0-0.9,20.3-1.7,21.1c0.3,2.9-1.5,4.3-1.5,4.3l-2.7,1.8l2.6,20.8c1.2,4.7-0.1,8.4-0.1,8.4l-1.7,5.5c-1.5,1.4-0.4,3.9-0.4,3.9
	l7.5,22.6c1.4,2.9,0.7,6,0.7,6l-3.2,7.2c-1.3,2.3-0.5,2.9-0.5,2.9l14.1,28.2c2.3,3.8,0.6,5.7,0.6,5.7l-2,2.1
	c-1.6,0.9-0.4,2.3-0.4,2.3L59,192.6l-2.4-1.4l-1.8,2.6l23.9,26.8l-0.2,6.5l25.8,19.6c4.5,3,3.4,5.8,3.4,5.8l-0.4,3.6l31.7,16.2
	l-2.7-0.2l0.1,4c0,0,35.5,15.2,36.1,14.1c0.6-1,3.9-15.2,3.9-15.2C177.5,272.3,177.2,268.6,177.2,268.6z M122,137
	c0,0,5.8-16.2,5.9-18.5c0,0,4.8,12.8-1.6,22.6c0,0-5.8,8-10.3,10.2l-0.8-0.8l-0.3-1.1C114.8,149.5,119.7,143.6,122,137z M96.4,108.1
	c0,0,9.4-15.4,12-29.7c0,0,5.3,11.7-2.2,22.9c0,0-5.8,8.1-9.9,9.8l-1-1.8L96.4,108.1z M84.4,61.8c0,0,1.1,9.8-4.8,19.3l-1.1-0.5
	L77.5,80c0,0,2.6-5.5,1-20.1c0,0-0.9-8.2-1.9-13.8C76.7,46.1,83.8,53.2,84.4,61.8z M31.3,65C38,76.7,44.1,87.1,52.3,91.4l-0.5,2.3
	C37.9,90.3,30.8,78.6,31.3,65z M39.2,114.6c15.9,4.4,23.4,4.3,33.5,3.1l0.7,1.9C73.4,119.6,53.6,131.3,39.2,114.6z M59.9,153.1
	c0,0,24.5,6.3,33.3,2.9l1,2.4l-2.2,0.6C92.1,159,74.3,169.3,59.9,153.1z M76.9,194.5c9.7,2.4,23.2,4.1,23.2,4.1
	c6.7,0.8,10.9-0.9,10.9-0.9l0.5,1.7c0,0-0.5,0.4-0.9,0.7l0,0c-0.1,0.1-0.1,0.1-0.2,0.1c0,0,0,0,0,0c0,0,0,0,0,0c0,0,0,0,0,0
	c0,0,0.1-0.1,0.2-0.1c-0.9,0.7-7.7,2.7-7.7,2.7C86.8,207.1,76.9,194.5,76.9,194.5z M90.8,225.7c0,0,16.4,4,28.9,3.6
	c1.9-0.3,5.1-0.8,5.1-0.8l0.8,2.1C125.6,230.6,106.7,241.9,90.8,225.7z M165.4,281.6c0,0-15.5-38.8-20.1-46.3c0,0-15.1-30.4-17.3-34
	c0,0-16.6-30.7-17.6-32.5c0,0-17.3-30.4-18.3-32.9c0,0-19.9-35-23.1-40.2c0,0-26.1-45.3-27.1-46.5L26.8,23.1l15.1,26.1l-17-30.5
	c0,0,23.1,24.5,31.7,39.2c0,0,21.7,33.3,24,37.8c0,0,16.3,27.4,21.6,39.1c0,0,19.4,38.6,20.5,41.5c0,0,14.3,30.4,15.5,33.7
	c0,0,15,34.8,16.1,37.6c0,0,12.8,30.4,13.3,33.7L165.4,281.6z"/>
<path id="XMLID_36_" class="st0" d="M110.4,200.3C110.4,200.3,110.4,200.3,110.4,200.3L110.4,200.3z"/>
<path id="XMLID_37_" class="st0" d="M123.5,229c-1.2,0.2-2.5,0.2-3.8,0.3C117.6,229.7,116.9,229.8,123.5,229z"/>
<path id="XMLID_23_" class="st0" d="M149.7,152.6C149.7,152.6,149.7,152.6,149.7,152.6C149.8,152.6,149.8,152.6,149.7,152.6
	C149.8,152.6,149.7,152.6,149.7,152.6z"/>
<path id="XMLID_24_" class="st0" d="M150.1,152.5c-0.2,0.1-0.3,0.1-0.4,0.1c0,0,0,0,0,0C149.8,152.6,150.4,152.5,150.1,152.5z"/>
<path id="XMLID_38_" class="st0" d="M152,195.6l-0.1-0.3C151,191.5,152,195.6,152,195.6z"/>
<path id="XMLID_39_" class="st0" d="M178.7,261.2c-0.2-0.1-0.3-0.3-0.5-0.4C179.1,261.6,179,261.6,178.7,261.2z"/>
<path id="XMLID_40_" class="st0" d="M150,152.5c-0.1,0-0.1,0-0.2,0.1c0,0,0.2,0,0.4-0.1C150.1,152.5,150,152.5,150,152.5z"/>
<path id="XMLID_55_" class="st1" d="M213.1,182.7c0-0.5,2.9-26.5,2.9-26.5c0.1-2-0.7-2.1-0.7-2.1l-1.3-0.5c-1.5-0.7-1.4-2.3-1.4-2.3
	l0.1-18.1c0.1-2.1-1.1-2.6-1.1-2.6c-0.5-0.2-3.2-3-3.2-3c-1.8-1.5-2.1-5.1-2.1-5.1l-1.5-12.2c-0.2-0.8-1.2-2.2-1.2-2.2l-1.5-1.3
	c-2.5-2-2.5-4.2-2.5-4.2l-3.7-11.3c-0.3-1.3-1.7-1.6-1.7-1.6c-2,0-2.7-1.5-2.7-1.5l-3.6-6.5c-0.8-1.3-1,0.3-1,0.3l-0.8,12.3
	c0,1-2.1,27.2-2.1,27.2c0.2,0.8-2,31.1-2,31.1c-0.1,6.5-1.8,37.8-1.8,37.8c-0.4,3.3-0.3,14.3-0.3,14.3c-0.8,1.1-0.1,26.8-0.1,26.8
	c-0.1,7.5,1.8,24,1.8,24l-2,1.3c-0.9-1.9-2-23.9-2-23.9c-0.2-2.2-1.5-27.4-1.5-27.4c-0.3-2.1-0.5-17-0.5-17
	c-0.2-2.8-0.1-24.7-0.1-24.7c-0.1-1.8,0.6-20.3,0.6-20.3c0.1-6.9,1.7-22.1,1.7-22.1c0.3-4.3,3.2-21.3,3.2-21.3
	c1.1-6,4.6-17.6,4.6-17.6c1.1-2.9-0.2-4.3-0.2-4.3c-0.8-1.4-1.2,0.3-1.2,0.3l-6.2,8.8c-1.4,2.3-4.1,2-4.1,2l-4.1,9.8
	c-1,4.5-5.6,8.1-5.6,8.1c-1.4,0.3-1.5,2.8-1.5,2.8l-1.8,9.9c-0.2,6.4-7.1,9.6-7.1,9.6l-0.7,18.9c0.4,2.4-2.1,3.5-3.1,3.8
	c0.2,0-0.3,0.1-0.4,0.1c-0.4,0.4-0.4,1.7-0.4,1.7l1.2,20.6c0.4,2.4-1.4,3.4-1.4,3.4c-1.5,0.2-0.5,2.3-0.5,2.3l3.3,14.7c0,0,0,0,0,0
	c1,3.8-0.6,6.2-0.6,6.2c-0.9,0.9-0.5,2.3-0.5,2.3l6.2,14.9c2.8,4.6,0.3,6.3,0.3,6.3c-0.8,0.8-0.1,2.1-0.1,2.1l8.4,12.3
	c2.1,1.9,0.9,3.8,0.9,3.8c-1,1.1-0.1,2.3-0.1,2.3l11.1,14.5c0,0,0.8,0.8,1.1,1.2c1.5,1.1,1.7-0.5,1.7-0.5l13.2-14.3
	c1.1-1.2,0.5-1.9,0.5-1.9c-0.4-0.6-2.7,0.4-2.7,0.4c2.2-3.7,12.2-16.7,12.2-16.7c2-1,0.2-1.9,0.2-1.9c-1.6-1.9,0-4.7,0-4.7l7.5-15.4
	c1.6-2-0.4-3.7-0.4-3.7c-0.9-1.8,0-3.9,0-3.9l4.3-15.6C216.9,177.3,213.1,182.7,213.1,182.7z M172.9,146.3l-0.1,2.4
	c0,0-14.1-0.2-15.6-15.6C162.5,138.8,167.4,144.1,172.9,146.3z M173.3,172.8l-0.2,2.1c0,0-14.8-0.2-15.5-15.8
	C162.4,164.5,168,170.9,173.3,172.8z M173.1,223.8c0,0-15.3-1.1-15.9-15.8c5.5,5.7,10.2,11.1,15.9,13.3V223.8z M157.9,185.6
	c6.6,8.2,9.4,10.2,15.5,13.5l0.2,2.2C173.5,201.4,158.4,202.1,157.9,185.6z M172.8,126.2l-0.6,0.5c0,0-6.3-5.1-6.3-12
	c0,0,0-5.4,2-8.1c0,0,2.3,15.5,5.7,18.8L172.8,126.2z M194.7,105.2c2.6,2.9,3.1,8.9,3.1,8.9c0.6,7.6-5.7,13.3-5.7,13.3l-0.7-0.5
	l-1-1C193.9,122.2,194.7,105.2,194.7,105.2z M186.2,145c0.5,0,1.4-0.3,1.4-0.3c6.6-2.5,16.6-10.9,16.6-10.9c0.7,3.1-3.3,7.7-3.3,7.7
	c-4.5,6-14.6,5.4-14.6,5.4l-0.1-0.6V145z M186,170.6l1.4-0.2c4.5-1,16.5-11.2,16.5-11.2c0.2,2-3,7.4-3,7.4
	c-3.6,5.8-14.6,6.1-14.6,6.1L186,170.6z M187.7,198.5l0-1.3l1.2-0.3c6.6-2.2,16.6-11.1,16.6-11.1c0,1.3-1.9,5.4-1.9,5.4
	c-3.6,8-15.7,8-15.7,8L187.7,198.5z M204,211.8c-5,7.3-15.1,7.3-15.1,7.3l-0.1-0.7v-1.4c7-1.9,17.7-11.3,17.7-11.3
	C206.5,206.7,204,211.8,204,211.8z"/>
<path id="XMLID_46_" class="st1" d="M337.3,68.4c-0.8-2-0.3-7.9-0.3-7.9c0.3-1.7,2.9-21.1,2.9-21.1c-0.8-0.3-3.2-2.7-3.2-2.7
	c-1.1-0.7-1.3-3-1.3-3l-1.9-20.6c-0.1-1.1-1.2-0.7-1.2-0.7l-18.3,10.1c-3.2,1.8-6,0.1-6,0.1c-0.9-0.7-2.2,0.2-2.2,0.2l-14.6,12.9
	c-0.3,1.6-7.2,5-7.2,5c-0.6,0.3-5.6,1.3-5.6,1.3c-3.2,0.3-3.7,2.3-3.7,2.3l-15.1,19.4c-1.5,2-4.8,3.1-4.8,3.1c-1,0.1-3.3,0.9-6,0.9
	c-2.6,0.1-3.9,2.3-3.9,2.3l-15.3,27c-1.7,3.5-4.2,2.9-4.2,2.9l-3.2-0.3c-1.7-0.8-1.7,0.9-1.7,0.9l-10,23.4c-1.6,3,0,2.7,0,2.7
	l2.9,2.9c2,0.7,1.1,2.3,1.1,2.3l-0.3,17.9c-0.1,1.9,1.8,2.6,1.8,2.6c3.4,0.3,2.2,1.9,2.2,1.9c0,0.6-0.7,4.9-0.7,4.9
	c-0.5,1.4-1.9,17.3-1.9,17.3c0,2.2,1.4,2.7,1.4,2.7c0.7,0.1,1,1.5,1,1.5c-0.6,0.6-0.1,2.4-0.1,2.4c0.6,2.6,4.2,6.7,4.2,6.7
	c1.3,0.6,0.1,1.9,0.1,1.9c-0.3,0.7-1,0-1.6-0.1c-0.5-0.1-3.4-2.9-3.4-2.9c-1.6-2.4-1.6,0.7-1.6,0.7c0,0.8-2.8,9-2.8,9
	c-0.6,1.6,0.2,4.1,0.2,4.1c1.9,2.1,0.5,3.4,0.5,3.4l-7.6,15.7c-1.5,2.6,0.1,4.5,0.1,4.5c1.5,1.1,0.3,2.2,0.3,2.2l-9.7,12.9
	c-2,1.4-0.5,3.4-0.5,3.4c0.6,1.2-0.4,2.3-0.4,2.3l-15.1,16.7l-0.3,0.7l-2,0.1l5.6,25c0.3,2.4,1.4,1.1,1.4,1.1l35.3-14.2l-0.1-3.6
	l-1.9-0.1c1-2,31.2-16.7,31.2-16.7c-1.3-6.5,1.7-7.6,1.7-7.6l26-20c0.5-0.3,0.9-1.9,0.9-1.9l0.1-6.3l23.3-25.6c0.5-0.5,0-1.5,0-1.5
	l-0.5-1.2c-0.3-0.8-1.4,0-1.4,0l-2,0.8l23.7-36.6c2.4-1.6,0.3-3.2,0.3-3.2s-0.2-0.7-2-2.5c-1.8-1.8,0.4-5.6,0.4-5.6l13.4-26.2
	c1.8-2.4,0.2-4.4,0.2-4.4l-2.3-5.4c-2.2-4.3,0.2-9.5,0.2-9.5c0.2-0.9,6.5-19.7,6.5-19.7c1.3-2.4,0.4-4.8,0.4-4.8
	C339,74.2,337.3,68.4,337.3,68.4z M280.5,46.6c0,0-2.9,18.7-2.2,24.3c0,0,0.4,7.6,1.7,9.1l-0.8,0.4l-0.8,0.6
	C270.8,72.4,272.3,50.7,280.5,46.6z M248.8,78.4c1.5,5,8.4,28.8,13.4,30.7l-0.5,0.8l-0.8,1c0,0-13.9-7.5-13.7-22.6
	C247.1,88.3,247.6,80.4,248.8,78.4z M229.4,118.4c2.9,8.9,6.7,24.4,13.2,31.2l-0.6,0.7l-0.5,0.8
	C231.8,145.9,223.1,127.9,229.4,118.4z M249.1,234.5c0,0-9.5,0.6-17.1-4.1l0.4-1l0.5-0.9c0,0,2.6,2.8,24.2-0.9l9.3-2.4
	C266.5,225.2,261.4,233.5,249.1,234.5z M245.9,199.8l0.4-1l0.5-1c0,0,9.2,2.2,25.5-1.5l8-1.9C273.4,205.3,256.2,205.8,245.9,199.8z
	 M281.4,162.1c0,0-10.5,1.3-18.1-3.9l0.3-1l0.5-0.8c0,0,6.4,2.2,20.2-0.5c0,0,12.8-2.4,13.5-3.1
	C297.9,152.9,291.8,160.9,281.4,162.1z M291.3,122.2c0,0-5.3-0.9-7-2.7l0.3-0.9l0.4-0.8c0,0,11.5,2.8,30.8-2.7c0,0,1.2,0,2.4-0.6
	C318.1,114.5,310.6,127.4,291.3,122.2z M323.8,79.4c-4,9.2-17.6,14.3-17.6,14.3l-1.1-1.7l1.2-0.8c7.6-5.4,19.7-25.7,19.7-25.7
	C327.3,71.5,323.8,79.4,323.8,79.4z M302.6,70.9c0,0-22.9,39.7-24.3,42.5c0,0-22.6,39.7-23.3,40.9c0,0-21.5,39.3-22.1,40.2
	c0,0-20,38.2-21.9,42.6c-1.9,4.4-17.1,37.3-19.2,44.1l-1.9,0.3c13-36.5,30.9-77.3,48.4-112.4c0,0,14.5-30.9,18.2-36.7
	c0,0,21.7-40.6,23.1-41.5c0,0,16.9-29.6,24.2-37.1l-0.3,0.3c17.7-23.7,28.5-34,28.5-34S304.1,67.7,302.6,70.9z"/>
</svg>
